<?xml version="1.0" encoding="UTF-8"?>
<svg xmlns="http://www.w3.org/2000/svg" viewBox="0 0 381.45 393.8">
  <defs>
    <style>
      .cls-1, .cls-2 {
        fill: none;
      }

      .cls-1, .cls-2, .cls-3, .cls-4, .cls-5 {
        stroke-miterlimit: 10;
      }

      .cls-1, .cls-3, .cls-4, .cls-5 {
        stroke: #000;
      }

      .cls-6 {
        isolation: isolate;
      }

      .cls-7 {
        opacity: .8;
      }

      .cls-7, .cls-8, .cls-9, .cls-10, .cls-11, .cls-12, .cls-13, .cls-14, .cls-15 {
        stroke-width: 0px;
      }

      .cls-7, .cls-9 {
        fill: #545655;
      }

      .cls-7, .cls-9, .cls-15 {
        mix-blend-mode: multiply;
      }

      .cls-2 {
        stroke: #231f20;
        stroke-width: 3px;
      }

      .cls-3, .cls-12, .cls-5 {
        fill: #edd91b;
      }

      .cls-10, .cls-15 {
        fill: #b1431a;
      }

      .cls-11, .cls-4 {
        fill: #fff;
      }

      .cls-13 {
        fill: #231f20;
      }

      .cls-4, .cls-5 {
        stroke-width: 2px;
      }

      .cls-14 {
        fill: #227b3c;
      }
    </style>
  </defs>
  <g class="cls-6">
    <g id="Layer_1" data-name="Layer 1">
      <g>
        <path class="cls-5" d="M84.8,317.88v-5.37c0-1.36-1.1-2.46-2.46-2.46h-17.23c-1.36,0-2.46,1.1-2.46,2.46v21.29c0,1.36,1.1,2.46,2.46,2.46h9.95"/>
        <path class="cls-5" d="M101.64,324.35v-6.47h-22.98c-2.57,0-4.66,2.09-4.66,4.66v16.79s11.5,6.47,19.56,0"/>
        <path class="cls-9" d="M77.64,318l5.34,1.96-4.3,1.84s.87,5.67,2.26,5.87-3.29,1.79-3.29,1.79h5.34l-2.67,3.58,3.31,1.87-4.94,2.89,3.02,2.93-7.7-1.39.2-18.13s.4-3.08,3.44-3.2Z"/>
        <path class="cls-9" d="M67.74,311.47v1.31l.68,1.05-.68,1.19-1.49,1.3v2.49l1.09,1.39-2.11.71v4.46l.64.97-.64,1.79,1.6,2.44-1.09.97.26,2.26h1.74l-2,1.77h-2.44v-18.86s-1.99-7.75,4.44-5.25Z"/>
      </g>
      <path class="cls-12" d="M122.09,352.28s-11.08-32.41,33.43-66.48,124.04,12.15,111.67,53.18c0,0-97,26.25-145.09,13.3Z"/>
      <g>
        <circle class="cls-14" cx="189.36" cy="168.15" r="134.4"/>
        <circle class="cls-2" cx="189.36" cy="168.15" r="134.4"/>
      </g>
      <path class="cls-2" d="M194.06,302.55s110.55-123.32-9.7-268.8"/>
      <path class="cls-2" d="M185.72,33.75s-110.55,123.32,9.7,268.8"/>
      <path class="cls-2" d="M194.06,302.55S23.51,181.53,184.36,33.75"/>
      <path class="cls-2" d="M183.81,33.75s170.55,121.02,9.7,268.8"/>
      <path class="cls-2" d="M183.81,33.75s-79.11,52.13-89.32,114.43c-10.45,63.73,21.37,125.94,99.03,154.37"/>
      <path class="cls-2" d="M195.26,302.55s79.11-52.13,89.32-114.43c10.45-63.73-21.37-125.94-99.03-154.37"/>
      <path class="cls-2" d="M184.87,33.75s-112.53,37.55-111.87,146.46c.06,9.13,1.63,18.19,4.52,26.84,9.43,28.18,38.42,88.33,115.52,95.34"/>
      <path class="cls-2" d="M191.72,302.39s112.53-37.55,111.87-146.46c-.06-9.13-1.63-18.19-4.52-26.84-9.43-28.18-38.42-88.33-115.52-95.34"/>
      <path class="cls-2" d="M249.72,292.18s-60.93-27.06-110.38,4.09"/>
      <path class="cls-2" d="M244.72,48.22s-60.93,27.06-110.38-4.09"/>
      <ellipse class="cls-2" cx="189.36" cy="160.39" rx="134.4" ry="34.47"/>
      <g>
        <path class="cls-11" d="M186.3,271.25h-.28c-26.91,0-51.96-11.13-72.44-32.19-15.12-15.55-22.52-31.19-22.83-31.85l21.95-10.3-10.98,5.15,10.96-5.18c.06.13,6.29,13.11,18.76,25.75,15.85,16.07,34.12,24.25,54.29,24.32,57.59-2.73,70.95-28.18,81.69-48.64,1.29-2.47,2.52-4.79,3.79-7.05l21.08,11.99c-1.09,1.93-2.23,4.09-3.43,6.38-5.77,10.98-13.66,26.03-29.21,38.36-17.92,14.21-41.83,21.82-73.1,23.25h-.28Z"/>
        <g>
          <path class="cls-8" d="M110.57,207.06l1.8,1.97c1.79,1.96,1.12,3.33-.75,4.86l-3.85,3.16c-1.54,1.26-3.45,2.4-5.45.21l-1.8-1.97,10.05-8.23ZM103.14,215.63l.42.46c.85.93,1.64.54,2.68-.31l4.18-3.43c.92-.76,1.38-1.39.52-2.33l-.41-.45-7.39,6.06Z"/>
          <path class="cls-8" d="M117.16,214.43l-10.15,8.03-1.29-1.44,10.14-8.03,1.29,1.44Z"/>
          <path class="cls-8" d="M112.3,222.52l-.59.53c-.72.64-.92,1.19-.39,1.71.54.53,1.22.18,1.85-.37,1.04-.92,1.15-1.41,1.01-3.09-.14-1.68-.13-2.66,1.29-3.93,1.27-1.13,2.91-1.92,4.52-.32,1.65,1.64.63,3.02-.41,3.95l-.52.46-1.37-1.35.47-.42c.67-.6.97-1.06.52-1.52-.45-.44-.99-.19-1.63.38-.68.61-.89,1.02-.73,2.35.27,2.28.06,3.23-1.55,4.67-1.37,1.22-3.11,1.93-4.77.28-1.65-1.64-.92-3.05.35-4.18l.57-.51,1.38,1.37Z"/>
          <path class="cls-8" d="M119.11,231.09l-.37.34c-1.08,1-2.76,2.23-4.7.39-1.7-1.61-.97-2.96.47-4.29l4.75-4.4c1.45-1.35,3.06-1.63,4.5-.26,1.72,1.63.88,3.03-.43,4.24l-.42.39-1.42-1.34.59-.55c.63-.58.84-1.04.35-1.51-.48-.46-.98-.29-1.63.31l-4.98,4.61c-.61.57-.97,1.13-.44,1.63.51.48,1.06.23,1.76-.42l.53-.49,1.43,1.36Z"/>
          <path class="cls-8" d="M127.92,226.76l-8.85,9.23-1.5-1.26,8.85-9.23,1.5,1.26Z"/>
          <path class="cls-8" d="M128.64,228.54l2.19,1.8c1.57,1.28,1.68,2.66.14,4.31l-.51.55c-1.44,1.53-2.97,2.08-4.84.55l-.59-.48-3.58,3.82-1.52-1.25,8.7-9.28ZM126.13,234.08l.42.34c.95.78,1.6.39,2.45-.52l.43-.46c.63-.67,1.02-1.34.18-2.03l-.55-.45-2.92,3.12Z"/>
          <path class="cls-8" d="M133.88,232.74l1.62,1.13-6.84,8.51,2.64,1.85-1.23,1.26-4.12-2.89,7.94-9.87Z"/>
          <path class="cls-8" d="M140.63,237.81l-7.34,10.26-1.68-1.05,7.34-10.26,1.68,1.05Z"/>
          <path class="cls-8" d="M135.28,249.3l6.58-10.7,2.03,1.08c-.48,1.75-2.36,7.76-2.59,8.39h.02c.73-1.35,1.65-2.86,2.73-4.62l1.71-2.78,1.62.86-6.58,10.7-1.96-1.04c.43-1.47,2.52-8.15,2.68-8.66h-.02c-.71,1.33-1.61,2.78-2.8,4.7l-1.8,2.93-1.64-.87Z"/>
          <path class="cls-8" d="M150.02,250.11l-2.61-1.14-1.77,3.52,3.01,1.31-1.03,1.48-4.61-2.01,5.63-11.17,4.59,2-.81,1.6-2.76-1.2-1.45,2.88,2.61,1.14-.8,1.58Z"/>
          <path class="cls-8" d="M162.47,248.61l1.9.55-1.76,5.31h.02c.87-1.02,2.78-3.23,4.01-4.65l2.16.63-3.8,3.9.04,7.89-2.11-.61.11-5.77-1.33,1.35-1.23,3.71-1.9-.55,3.9-11.75Z"/>
          <path class="cls-8" d="M172.49,258.04l-2.82-.6-.92,3.78,3.25.69-.66,1.65-4.98-1.05,2.91-12,4.96,1.05-.42,1.72-2.98-.63-.75,3.1,2.82.6-.41,1.7Z"/>
          <path class="cls-8" d="M178.94,259.01l-2.86-.41-.63,3.83,3.29.47-.54,1.69-5.05-.72,2-12.16,5.02.72-.29,1.74-3.02-.43-.52,3.14,2.86.41-.28,1.72Z"/>
          <path class="cls-8" d="M181.08,252.52l2.92.21c2.08.15,3.07,1.19,2.89,3.36l-.06.72c-.17,2.03-1.05,3.31-3.54,3.14l-.78-.06-.42,5.04-2.02-.15,1.01-12.27ZM182.63,258.34l.56.04c1.26.09,1.53-.58,1.63-1.78l.05-.6c.07-.89-.04-1.64-1.16-1.72l-.73-.05-.34,4.12Z"/>
          <path class="cls-8" d="M190.07,252.96l-.2,12.3-2.03-.03.2-12.3,2.03.03Z"/>
          <path class="cls-8" d="M192.23,265.29l-.67-12.29,2.35-.11c.62,1.71,2.52,7.7,2.69,8.34h.02c-.18-1.51-.28-3.24-.39-5.26l-.17-3.19,1.87-.09.67,12.29-2.26.11c-.49-1.45-2.61-8.1-2.77-8.61h-.02c.18,1.48.26,3.15.38,5.36l.18,3.36-1.89.09Z"/>
          <path class="cls-8" d="M207.01,263.98l-1.57.2c-.09-.21-.19-.64-.25-.9-.24.86-.95,1.24-1.79,1.35-1.92.25-2.73-.97-3.04-3.03l-.86-5.72c-.3-1.99.31-3.56,2.58-3.86,2.74-.36,3.31,1.49,3.5,2.79l.06.4-2.01.26-.07-.49c-.1-.64-.31-1.37-1.22-1.25-.73.1-.97.61-.83,1.58l.93,6.23c.15.97.52,1.45,1.25,1.35.87-.11.98-.82.79-2.08l-.27-1.78-1.14.15-.24-1.62,3.15-.41,1.02,6.82Z"/>
          <path class="cls-8" d="M222.87,250.51l2.05,5.42c.84,2.22.23,3.61-1.87,4.3-2.02.67-3.33-.11-4.15-2.28l-2.07-5.46c-.84-2.22-.03-3.63,1.82-4.24,1.88-.62,3.37.03,4.22,2.26ZM218.71,251.69l2.21,5.83c.36.96.91,1.29,1.6,1.07.74-.25.92-.78.53-1.8l-2.2-5.82c-.35-.92-.84-1.33-1.62-1.07-.69.23-.89.81-.51,1.79Z"/>
          <path class="cls-8" d="M227.59,252.43l2.42,5.01-1.85.78-5.42-11.21,2.56-1.08c1.82-.77,3.23-.54,4.21,1.47l.21.43c.83,1.72.29,2.48-.09,2.85.85.01,1.47.31,2.21,1.83.46.94,1.32,2.77,1.78,3.4l-1.78.76c-.49-.61-1.34-2.47-1.74-3.28-.66-1.37-1-1.6-2.07-1.15l-.43.18ZM226.9,251.01l.42-.18c.98-.41,1.17-.91.58-2.13l-.19-.39c-.42-.87-.87-1.31-1.91-.87l-.52.22,1.62,3.34Z"/>
          <path class="cls-8" d="M240.83,252.24l-1.38.72c-.16-.16-.43-.53-.58-.75.11.88-.41,1.48-1.15,1.87-1.69.88-2.92.03-4.01-1.79l-3.02-5.04c-1.05-1.75-1.09-3.43.9-4.47,2.41-1.26,3.66.26,4.35,1.41l.21.35-1.77.93-.26-.43c-.34-.57-.82-1.17-1.63-.75-.64.34-.67.9-.16,1.76l3.29,5.49c.51.86,1.05,1.17,1.69.83.77-.4.59-1.1-.07-2.2l-.94-1.57-1,.53-.85-1.42,2.78-1.45,3.59,6Z"/>
          <path class="cls-8" d="M242.5,247.31l1.6,2.96-1.71,1.08-5.64-11.29,2.37-1.51,9.21,9.02-1.75,1.12-2.41-2.45-1.67,1.06ZM242.93,244.93c-1.5-1.57-2.93-3.06-3.89-4.13l-.06.04c.56.87,1.82,3.26,2.69,4.89l1.26-.8Z"/>
          <path class="cls-8" d="M249.74,246.55l-8.22-9.61,1.83-1.37c1.57,1.05,6.85,4.88,7.39,5.3h.02c-1.08-1.14-2.24-2.49-3.59-4.07l-2.13-2.49,1.46-1.09,8.22,9.61-1.77,1.32c-1.31-.9-7.18-5.15-7.63-5.48h-.01c1.07,1.12,2.18,2.43,3.65,4.15l2.25,2.63-1.48,1.1Z"/>
          <path class="cls-8" d="M248.9,231.06l8.95,9.02-1.49,1.29-8.95-9.02,1.49-1.29Z"/>
          <path class="cls-8" d="M257.71,235.13l.59.53c.71.63,1.3.79,1.84.27.55-.53.15-1.16-.47-1.71-1.02-.92-1.55-.99-3.33-.76-1.79.23-2.83.28-4.23-.98-1.25-1.12-2.15-2.61-.51-4.21,1.68-1.64,3.19-.77,4.22.15l.51.45-1.39,1.36-.47-.42c-.66-.59-1.17-.85-1.64-.39-.46.45-.16.94.47,1.5.67.6,1.12.78,2.53.54,2.41-.39,3.44-.25,5.03,1.17,1.35,1.21,2.17,2.79.48,4.45-1.68,1.65-3.21,1.04-4.47-.08l-.56-.5,1.4-1.37Z"/>
          <path class="cls-8" d="M263.15,229.99l2.44,2.41-1.3,1.5-8.88-9.29,1.81-2.08,11.6,6.16-1.34,1.54-3.06-1.7-1.27,1.47ZM262.82,227.6c-1.92-1.1-3.75-2.14-5-2.91l-.05.05c.81.68,2.74,2.63,4.08,3.96l.96-1.11Z"/>
          <path class="cls-8" d="M260.77,221.03l-1.22,1.61-1.54-1.01,3.61-4.79,1.54,1.01-1.22,1.63,9.22,6.07-1.17,1.55-9.21-6.07Z"/>
          <path class="cls-8" d="M263,214.69l11.17,6.5-1.07,1.61-11.17-6.5,1.07-1.61Z"/>
          <path class="cls-8" d="M269.78,210l5.42,2.71c2.22,1.11,2.77,2.52,1.71,4.36-1.01,1.76-2.54,2.02-4.71.93l-5.46-2.74c-2.22-1.11-2.63-2.67-1.71-4.28.94-1.65,2.51-2.1,4.74-.99ZM267.56,213.48l5.83,2.92c.96.48,1.6.39,1.95-.22.37-.65.12-1.15-.9-1.66l-5.82-2.92c-.92-.46-1.58-.45-1.97.23-.34.6-.07,1.16.91,1.65Z"/>
          <path class="cls-8" d="M279.27,212.36l-12.1-4.82.92-2.02c1.91.23,8.5,1.26,9.2,1.4v-.02c-1.52-.51-3.22-1.19-5.21-1.98l-3.14-1.25.73-1.61,12.1,4.82-.89,1.94c-1.61-.22-8.93-1.36-9.49-1.45v.02c1.5.5,3.13,1.16,5.31,2.03l3.31,1.32-.74,1.63Z"/>
        </g>
      </g>
      <path class="cls-12" d="M209.02,154.48s-35.4-3.49-40.17-1.92h-8.34l-8,9.23s-2.21,6.3,8,16,48.51-11.4,48.51-11.4v-11.91Z"/>
      <g>
        <path class="cls-12" d="M151.05,164.77c-9.76,1-11.35-16.66-11.35-21.76s-8.85-13.62-18.14-24.34-5.77-27.74-5.77-27.74h24.9s-.4,15.88,1.82,25.62c2.21,9.74,4.61,17.29,8.54,18.64s14.53,3.4,18.95,6.13,8.69,5.11,8.69,5.11"/>
        <path class="cls-8" d="M151.15,165.77c-8.87.56-11.16-10.48-12.08-17.25-.55-3.61.23-6.8-2.14-10.06-1.86-2.96-4.25-5.7-6.62-8.42-3.36-4.01-9.8-10.27-12.31-14.77-4.06-7.46-4.54-16.31-3.19-24.55,0,0,.26-.93.26-.93,2.3.46,4.63.71,6.94.87,6.58.4,13.22.51,19.69-.96,0,0-.02,1.24-.02,1.24-.06,9.51.1,19.12,2.5,28.37,1.19,4.49,2.26,9.23,4.9,13.04.86,1.22,2,1.91,3.4,2.23,4.57,1.31,9.38,2.35,13.91,3.99,3.32,1.04,9.69,5.26,12.77,6.97,0,0-.98,1.75-.98,1.75l-8.32-4.89c-5.41-3.1-11.94-4.08-17.96-5.9-1.78-.39-3.41-1.48-4.43-2.94-2.88-4.12-4-9.05-5.24-13.77-2.44-9.4-2.63-19.24-2.56-28.89,0,0,1,1.02,1,1.02-4.12-.86-8.27-1.01-12.45-.98-4.17.05-8.32.26-12.45.98,0,0,.98-.81.98-.79-1.31,8.1-.79,17.18,3.66,24.29,2.29,3.56,8.58,9.97,11.4,13.31,2.42,2.78,4.83,5.54,6.81,8.69.96,1.61,1.94,3.33,2.06,5.55.02,1.77.14,3.55.36,5.32.82,5.62,2.58,15.95,9.89,15.5,0,0,.2,1.99.2,1.99h0Z"/>
      </g>
      <path class="cls-8" d="M144.54,144.71c1.51,7.91,5.67,23.97,15.9,23.18,0,0,.16,1.99.16,1.99-11.48.28-15.1-16.33-16.06-25.17h0Z"/>
      <g>
        <path class="cls-12" d="M154.48,168.91s.24,7.8,3.12,11.88,7.8,12.5,8.06,8.29,5.62-7.03,6.34,0-.12,14.17,1.66,16.13,12.49,18.88,15.69,9.91c3.2-8.97,3.2-21.05,8.82-10.8,5.62,10.25,4.6-11.01,4.6-11.01,0,0,5.59,3.65,3.69-5.8s8.53-1.22,3.7-18.61c0,0-1.27-5.9,1.29-9.99s0-2.49,0-2.49c0,0-2.8,6.94-7.14,8.42s-13.1,2.24-13.1,2.24v-5.36l-4.5.26-1.9,6.92s-2.96,1.31-5.01,0-4.51-5.9-4.51-5.9c0,0,.24,5.36,2.88,8.17s-4.25,1.25-4.25,1.25c0,0-11.31,4.94-19.44-3.52Z"/>
        <path class="cls-8" d="M154.86,169.83c.32-.04.67-.6.61-.85,0,.18.02.58.02.77.2,3.76.7,7.72,2.78,10.93,2.03,2.94,3.72,6.26,6.2,8.79.19.17.44.33.55.34.07.03.12-.13.16-.25.15-1.78.98-3.89,2.75-4.76,5.24-1.91,4.43,7.25,4.67,10.24.06,2.42.02,4.85.3,7.23.16,1.2.39,2.35,1.27,3.2,2.13,2.77,4.4,5.96,6.85,8.44,1.58,1.53,3.53,3.57,5.83,3.49,2.32-.55,2.53-3.77,3.23-5.71,1.03-2.49,1.94-15.83,6.64-10.57,1.25,1.41,1.93,3.1,3.04,4.54.32.44.81.8.99.81.23-.09.4-.46.52-.78.54-1.63.6-3.42.68-5.15.11-2.95-.07-5.98-.29-8.92.82.36,2.69,1.65,3.49,1.34.31-.06.49-.54.58-.86.39-1.92-.29-4.01-.47-5.96-.08-1.01-.03-2.21.62-3.32.68-1.12,1.74-1.64,2.45-2.11,4.7-2.89.23-10.55.52-14.95-.04-2.45.38-5.11,1.71-7.3.4-.64.85-1.44,1.02-1.97,0,.05,0,.03.06.21.08.14.2.28.35.35.1.04.12.05.17.06.04.01.1,0,.12,0,.01,0,.05,0,.03,0-.04,0-.24.09-.34.16,0,0,.4-.47.4-.47-1.34,2.98-3,5.85-5.66,7.87-2.73,1.89-6.14,2.07-9.25,2.67-2.4.36-4.83.63-7.26.85,0-.73,0-5.63,0-6.46,0,0,1.06,1,1.06,1l-4.5.26.91-.73-1.9,6.92-.13.48c-2.34,1.09-5.56,1.34-7.42-.76-1.6-1.64-2.7-3.45-3.81-5.41,0,0,1.88-.52,1.88-.52.07,1.15.29,2.38.6,3.52.33,1.14.75,2.26,1.38,3.18.26.51,1,1.04,1.38,1.89.28.53.11,1.44-.41,1.79-.66.46-1.06.42-1.45.48-1.52.07-2.74-.17-4.07-.44,0,0,.62-.06.62-.06-6.01,2.35-13.25,2.13-18.48-1.91,0,0-.28-.2-.28-.2-.11-.07-.19-.13-.21-.17-.31-.36-.24-.7-.48-1.23h0ZM154.09,167.99c1.53.59,2.62,1.65,3.96,2.56,4.54,2.9,10.56,2.86,15.47.96,0,0,.31-.12.31-.12,1.28.28,3.14.59,4.13.42-.09.04-.23.35-.19.45.02.11.01.04-.03-.02-3.34-3.42-3.51-9.01-3.74-13.55,1.61,2.76,3.42,6.54,5.61,8.78,1.23,1.4,3.21,1.14,4.78.53,0,0-.56.65-.56.65l1.9-6.92.19-.69c.34-.02,4.74-.27,5.22-.3,0,0,1.06-.06,1.06-.06,0,0,0,1.06,0,1.06v5.36l-1.09-1c3.99-.4,8.11-.89,11.96-1.91.99-.27,1.71-.58,2.46-1.13,2.37-1.8,3.95-4.62,5.12-7.33.63-.37,1.43-.84,2.21-.47,1.97,1.24-.73,3.94-1.17,5.36-.98,2.35-1.02,5.21-.62,7.76,1.01,4.38,3.23,11.12-1.67,14.01-2.32,1.17-2.44,2.55-1.98,4.87.29,1.71.62,3.55.24,5.32-.63,2.77-3.39,2.92-5.43,1.57-.02,0,1.54-.89,1.54-.89-.01,2.63.37,19.3-4.98,13.14-.99-1.05-2.86-6.11-4.49-5.37-.98.96-1.28,2.45-1.72,3.81-.65,2.31-1.19,4.68-1.87,7.02-1.78,7.75-4.8,7.78-10.09,2.42-2.45-2.53-4.69-5.72-6.81-8.54-.87-.9-1.22-2.21-1.36-3.42-.57-4.79-.12-9.73-.96-14.45-.34-1.58-1.44-3.41-3.28-2.49-.98.52-1.68,1.54-1.97,2.6-.29.68-.03,1.61-.56,2.35-.45.63-1.43.15-1.78-.2-3.01-2.99-5.32-6.87-7.69-10.36-1.68-3.21-2.3-6.81-2.7-10.36,0,0-.02-.24-.02-.24v-.12c-.07-.4.27-.96.59-1.08h0Z"/>
      </g>
      <path class="cls-11" d="M188.04,174.75s-5.74,5.4-2.77,7.61,7.07,5.11,7.07,5.11l6.16,2.76s1.63-1.45.84-9.56c-.79-8.1-11.31-5.92-11.31-5.92Z"/>
      <path class="cls-8" d="M170.48,172.48c-10.59,4.87-17.05-13.87-19.75-21.24-1.1-3.27-2.11-6.6-2.92-9.93.99,3.3,2.13,6.56,3.39,9.76,2.51,6.01,9.79,24.16,18.32,19.66,0,0,.95,1.76.95,1.76h0Z"/>
      <path class="cls-8" d="M154.52,141.3c3.03,10.99,7.93,24.14,18.13,30.26,0,0-.99,1.74-.99,1.74-9.92-6.4-15.1-21.01-17.13-32h0Z"/>
      <path class="cls-5" d="M167.66,160.37h40.47s7.83-6.81,3.74-12.26-42.82-3.4-44.22,0-3.71,8.85,0,12.26Z"/>
      <polygon class="cls-11" points="195.29 145.09 195.92 150.51 197.52 151.5 194.54 156.16 194.54 158.63 182.89 158.63 180.6 153.24 176.26 151.5 176.26 148.92 173.74 147.44 195.29 145.09"/>
      <g>
        <path class="cls-12" d="M201.61,144.71s1.41-2.89,6.52-5.7,11.49-11.74,11.49-17.36-12-23.49-12-23.49l-6.01-5.11s-4.3,5.62-5.91,1.28-4.76-.26-7.14.26,6.9,7.91,2.64,10.21-15.23,20.43-7.83,30.89c0,0,1.57,3.74-.87,9.02h19.12Z"/>
        <path class="cls-8" d="M201.08,143.86c-.25.1-.43.54-.29.26,2.47-4.34,7.62-5.65,10.84-9.21,3.34-3.63,6.59-8.19,6.98-13.2-.46-3.93-2.67-7.46-4.47-10.96-1.99-3.77-5.49-9.09-7.17-11.84,0,0-6.01-5.11-6.01-5.11,0,0,1.44-.15,1.44-.15-1.42,1.48-3.61,3.85-5.93,2.82-1.85-.89-1.15-4.13-3.58-3.41-1.31.41-2.76,1.65-4.3,1.99.86,2.35,3.35,4.51,3.98,7.2.15.68.12,1.53-.4,2.14-.44.57-1.09.75-1.62,1.21-2.43,2.13-4.19,4.94-5.67,7.79-3.33,6.6-5.66,15.44-1.02,21.93,1.31,3.16.73,6.7-.47,9.79,0,.04-.91-1.42-.91-1.41,6.2,0,12.36.06,18.59.15h0ZM202.15,145.56c-7.04.1-14.14.16-21.21.15,1.18-2.41,2.36-4.96,2.19-7.7-.03-.71-.13-1.48-.33-2.08l.07.12c-3.1-4.6-2.79-10.47-1.36-15.55,1.49-5.06,3.87-9.87,7.26-13.94.78-1.05,1.96-1.73,2.92-2.56.74-.97.05-2.34-.47-3.31-.96-1.94-2.79-3.41-3.49-5.52-.1-.45.27-.97.72-1.04,0,0,.21-.07.21-.07,1.34-.47,2.33-1.48,3.88-2.07,1.76-.76,3.19.48,3.78,2.03.26.52.53,1.01.85,1.11,1.43.26,2.79-1.6,3.66-2.69,0,0,.65-.82.65-.82l.79.67,6.01,5.11s.11.09.11.09c3.94,6.04,7.8,12.12,10.73,18.75,2.67,5.31,1.29,9.48-1.57,14.28-1.93,3.12-4.28,6.02-7.23,8.26-2.73,1.87-5.93,3.35-7.72,6.26,0,0-.04.07-.04.07l-.02.03c.06-.1-.15.31-.38.42h0Z"/>
      </g>
      <g>
        <path class="cls-5" d="M295.23,317.88v-5.37c0-1.36,1.1-2.46,2.46-2.46h17.23c1.36,0,2.46,1.1,2.46,2.46v21.29c0,1.36-1.1,2.46-2.46,2.46h-9.95"/>
        <path class="cls-5" d="M278.4,324.35v-6.47h22.98c2.57,0,4.66,2.09,4.66,4.66v16.79s-11.5,6.47-19.56,0"/>
        <path class="cls-9" d="M302.39,318l-5.34,1.96,4.3,1.84s-.87,5.67-2.26,5.87,3.29,1.79,3.29,1.79h-5.34l2.67,3.58-3.31,1.87,4.94,2.89-3.02,2.93,7.7-1.39-.2-18.13s-.4-3.08-3.44-3.2Z"/>
        <path class="cls-9" d="M312.29,311.47v1.31l-.68,1.05.68,1.19,1.49,1.3v2.49l-1.09,1.39,2.11.71v4.46l-.64.97.64,1.79-1.6,2.44,1.09.97-.26,2.26h-1.74l2,1.77h2.44v-18.86s1.99-7.75-4.44-5.25Z"/>
      </g>
      <g>
        <path class="cls-5" d="M60.45,215.75s-8.51,5.99,1.36,15.76c9.87,9.77,16,17.59,20.09,25.25s28.63,30.47,35.59,35.58,21.86,15.66,21.86,15.66c0,0,5.2-6.81,5.2-9.53s-62.3-28.26-84.09-82.72Z"/>
        <path class="cls-5" d="M128.43,329.46s-3.18-4.77,4.58-8.51,11.39-9.3,1.7-16.22c0,0-29.31-18.75-46.68-39.56s-13.38-21.67-23.55-30.94,10.26,33.09,11.28,37.95,7.13,22.22,17.86,27.67c10.73,5.45,18.94,17.02,16.03,21.45s-4.1,5.45-4.1,5.45c0,0,20.4,2.38,22.88,2.72Z"/>
        <path class="cls-5" d="M78.68,260.3s.33,12.77,6.7,20.88,29.87,22.75,30.38,36.7"/>
        <path class="cls-15" d="M117.48,292.35s13.19,12.09,11.43,17.7-7.29,16.82-.95,15.82c0,0,1.67-4.75,8.73-7.99s5.09-10.3-19.21-25.53Z"/>
        <path class="cls-15" d="M78.68,275.84s7.74,16.64,17.29,20.43,13.48,11.74,13.48,11.74c0,0-10.73-6.95-17.8-11.74s-13.09-15.66-12.96-20.43Z"/>
        <path class="cls-15" d="M63.32,235.67s2.89,10.81,4.68,13.02,2.89-1.87,4.09-2.72-9.22-12.78-8.77-10.72"/>
        <path class="cls-15" d="M84.32,260.3s4.75,10.94,7.33,15.54,16.3,9.96,16.3,9.96"/>
        <path class="cls-10" d="M141.64,297.12s-.86,8.85-4.95,6.13-13.18-6.98-13.18-6.98l15.84,10.21s5.9-6.39,2.3-9.36Z"/>
      </g>
      <g>
        <path class="cls-5" d="M316.19,215.75s8.51,5.99-1.36,15.76c-9.87,9.77-16,17.59-20.09,25.25s-28.63,30.47-35.59,35.58-21.86,15.66-21.86,15.66c0,0-5.2-6.81-5.2-9.53s62.3-28.26,84.09-82.72Z"/>
        <path class="cls-5" d="M248.2,329.46s3.18-4.77-4.58-8.51-11.39-9.3-1.7-16.22c0,0,29.31-18.75,46.68-39.56s13.38-21.67,23.55-30.94-10.26,33.09-11.28,37.95-7.13,22.22-17.86,27.67c-10.73,5.45-18.94,17.02-16.03,21.45s4.1,5.45,4.1,5.45c0,0-20.4,2.38-22.88,2.72Z"/>
        <path class="cls-5" d="M297.95,260.3s-.33,12.77-6.7,20.88-29.87,22.75-30.38,36.7"/>
        <path class="cls-15" d="M259.15,292.35s-13.19,12.09-11.43,17.7,7.29,16.82.95,15.82c0,0-1.67-4.75-8.73-7.99s-5.09-10.3,19.21-25.53Z"/>
        <path class="cls-15" d="M297.95,275.84s-7.74,16.64-17.29,20.43-13.48,11.74-13.48,11.74c0,0,10.73-6.95,17.8-11.74s13.09-15.66,12.96-20.43Z"/>
        <path class="cls-15" d="M313.31,235.67s-2.89,10.81-4.68,13.02-2.89-1.87-4.09-2.72,9.22-12.78,8.77-10.72"/>
        <path class="cls-15" d="M292.31,260.3s-4.75,10.94-7.33,15.54-16.3,9.96-16.3,9.96"/>
        <path class="cls-10" d="M234.99,297.12s.86,8.85,4.95,6.13,13.18-6.98,13.18-6.98l-15.84,10.21s-5.9-6.39-2.3-9.36Z"/>
      </g>
      <path class="cls-4" d="M199.14,363.78c-43.29,1.23-79.06-7.94-96.92-13.68-6.64-2.13-10.02-9.5-7.35-15.94l4.25-10.25c.91-2.2,3.38-3.3,5.62-2.5,7.9,2.8,27.03,8.89,52.33,12.18,29.5,3.83,73.61,4.52,118.28-13.31,2.25-.9,4.8.18,5.75,2.41l4.4,10.38c2.67,6.31-.49,13.57-6.93,15.91-27.63,10.03-54.75,14.11-79.42,14.81Z"/>
      <g>
        <path class="cls-8" d="M109.98,330.46l2.91.83c2.89.82,3.16,2.52,2.44,5.05l-1.49,5.22c-.59,2.08-1.6,4.27-4.84,3.35l-2.91-.83,3.88-13.62ZM108.71,342.89l.67.19c1.38.39,1.85-.43,2.25-1.84l1.62-5.67c.36-1.25.36-2.12-1.02-2.51l-.66-.19-2.86,10.02Z"/>
        <path class="cls-8" d="M121.95,333.72l-3.51,13.72-2.12-.54,3.51-13.72,2.12.54Z"/>
        <path class="cls-8" d="M124.85,344.72l-.2.85c-.24,1.03-.06,1.67.75,1.86.83.19,1.22-.55,1.43-1.44.34-1.48.13-2.02-1.08-3.53-1.21-1.51-1.84-2.45-1.36-4.49.42-1.82,1.39-3.53,3.88-2.95,2.55.59,2.52,2.5,2.18,3.99l-.17.74-2.11-.49.16-.68c.22-.96.19-1.58-.51-1.74-.69-.16-1.01.4-1.22,1.31-.22.98-.15,1.5.86,2.66,1.71,2,2.14,3.03,1.61,5.34-.45,1.96-1.56,3.65-4.14,3.06-2.55-.59-2.8-2.36-2.38-4.18l.19-.82,2.13.49Z"/>
        <path class="cls-8" d="M138.76,347.6l-.11.54c-.32,1.59-1.02,3.76-3.96,3.18-2.57-.51-2.8-2.23-2.38-4.35l1.39-7c.42-2.14,1.68-3.37,3.86-2.94,2.6.52,2.76,2.34,2.38,4.27l-.12.62-2.15-.43.17-.87c.18-.92.07-1.49-.67-1.64-.73-.15-1.07.31-1.26,1.26l-1.46,7.34c-.18.91-.14,1.65.67,1.81.77.15,1.1-.42,1.31-1.45l.16-.78,2.16.43Z"/>
        <path class="cls-8" d="M145.92,338.78l-2.4,13.95-2.15-.37,2.4-13.95,2.15.37Z"/>
        <path class="cls-8" d="M149.62,339.38l3.12.45c2.23.32,3.2,1.59,2.84,4.07l-.12.83c-.34,2.31-1.39,3.73-4.04,3.34l-.83-.12-.84,5.76-2.16-.31,2.04-14.01ZM150.84,346.18l.59.09c1.35.2,1.69-.56,1.89-1.93l.1-.69c.15-1.02.08-1.89-1.12-2.06l-.78-.11-.68,4.7Z"/>
        <path class="cls-8" d="M159.16,340.72l2.17.25-1.4,12.12,3.54.41-.41,1.92-5.52-.64,1.62-14.06Z"/>
        <path class="cls-8" d="M169.76,341.81l-1.26,14.1-2.18-.2,1.26-14.1,2.18.2Z"/>
        <path class="cls-8" d="M172.65,356.26l.86-14.13,2.52.15c.44,2.03,1.71,9.11,1.81,9.87h.02c0-1.74.12-3.73.26-6.05l.22-3.67,2.01.12-.86,14.13-2.43-.15c-.34-1.72-1.76-9.58-1.86-10.18h-.02c0,1.72-.12,3.63-.28,6.17l-.23,3.87-2.03-.12Z"/>
        <path class="cls-8" d="M189.13,350.52l-3.11-.08-.12,4.46,3.59.1-.33,2-5.49-.15.38-14.16,5.47.14-.05,2.03-3.28-.09-.1,3.65,3.11.08-.05,2.01Z"/>
        <path class="cls-8" d="M206.14,348.25l-2.1,5.29c-.93,2.33-1.9,3.51-3.68,3.56-2.09.06-3.1-1.47-3.17-3.82-.07-2.29.8-3.07,2.62-4.62,1.29-1.09,1.65-1.55,1.61-2.93-.03-.85-.19-1.38-.83-1.36-.6.02-.78.65-.76,1.39.03,1.1.13,1.59.76,2.52l5.72,8.49-2.44.07-4.79-6.98c-.94-1.38-1.22-2.1-1.27-3.82-.06-2.2.94-3.39,2.68-3.44,1.83-.05,2.79,1,2.85,3.11.05,1.9-.51,2.69-2.46,4.27-1.33,1.09-1.64,1.51-1.6,3.05.04,1.35.51,1.94,1.29,1.92.87-.02,1.12-.64,1.62-1.9l1.85-4.74,2.07-.06Z"/>
        <path class="cls-8" d="M215.95,351.94l.08.87c.09,1.05.46,1.61,1.28,1.54.85-.07,1-.9.92-1.81-.13-1.51-.5-1.96-2.11-3.02-1.62-1.07-2.5-1.76-2.68-3.85-.16-1.86.24-3.78,2.78-4,2.6-.22,3.17,1.6,3.3,3.13l.07.75-2.16.19-.06-.69c-.09-.98-.3-1.56-1.02-1.5-.71.06-.84.69-.76,1.63.09,1,.32,1.47,1.64,2.27,2.25,1.38,2.97,2.23,3.18,4.59.17,2-.36,3.96-3,4.19-2.61.23-3.39-1.38-3.55-3.24l-.07-.84,2.18-.19Z"/>
        <path class="cls-8" d="M224.72,341.02l1.34,10.68c.13,1.03.54,1.57,1.38,1.46.86-.11,1.05-.8.94-1.75l-1.34-10.68,2.17-.27,1.34,10.64c.28,2.22-.55,3.73-2.89,4.03-2.23.28-3.45-.79-3.75-3.19l-1.34-10.65,2.17-.27Z"/>
        <path class="cls-8" d="M240.44,348.71l.09.54c.27,1.6.37,3.88-2.58,4.37-2.59.43-3.4-1.1-3.76-3.23l-1.17-7.04c-.36-2.16.38-3.75,2.58-4.11,2.62-.43,3.41,1.22,3.73,3.16l.1.63-2.16.36-.15-.88c-.15-.93-.46-1.42-1.21-1.3-.74.12-.89.67-.73,1.63l1.23,7.39c.15.91.45,1.59,1.27,1.45.78-.13.88-.78.71-1.82l-.13-.78,2.18-.36Z"/>
        <path class="cls-8" d="M250.04,346.79l.11.54c.33,1.59.52,3.86-2.41,4.47-2.57.53-3.44-.96-3.88-3.08l-1.44-6.99c-.44-2.14.24-3.76,2.41-4.21,2.6-.54,3.45,1.08,3.85,3l.13.62-2.14.44-.18-.87c-.19-.92-.51-1.4-1.26-1.25-.73.15-.86.7-.67,1.65l1.51,7.33c.19.9.51,1.57,1.32,1.4.77-.16.85-.81.64-1.84l-.16-.77,2.16-.45Z"/>
        <path class="cls-8" d="M257.98,342.58l-3.02.75,1.07,4.33,3.48-.86.21,2.02-5.33,1.31-3.39-13.74,5.31-1.31.48,1.97-3.19.79.87,3.55,3.02-.75.48,1.95Z"/>
        <path class="cls-8" d="M263.93,343.34l.24.84c.29,1.01.76,1.49,1.56,1.26.82-.24.81-1.07.55-1.95-.42-1.46-.87-1.82-2.66-2.55-1.8-.73-2.79-1.25-3.37-3.26-.52-1.79-.5-3.76,1.96-4.46,2.51-.72,3.41.96,3.84,2.43l.21.73-2.08.6-.19-.67c-.27-.95-.6-1.47-1.3-1.27-.68.2-.69.84-.43,1.74.28.96.59,1.38,2.04,1.91,2.47.92,3.34,1.61,4,3.89.56,1.93.41,3.95-2.13,4.68-2.52.73-3.59-.7-4.11-2.49l-.23-.81,2.1-.61Z"/>
        <path class="cls-8" d="M273.32,340.47l.28.83c.33,1,.82,1.46,1.61,1.19.81-.27.76-1.1.47-1.98-.48-1.44-.94-1.79-2.76-2.44-1.83-.66-2.84-1.13-3.5-3.12-.59-1.77-.65-3.73,1.77-4.54,2.48-.82,3.45.82,3.94,2.27l.24.72-2.05.68-.22-.66c-.31-.93-.66-1.45-1.35-1.22-.67.22-.66.87-.36,1.76.32.95.65,1.35,2.12,1.82,2.5.82,3.41,1.47,4.16,3.72.64,1.9.57,3.93-1.94,4.77-2.48.83-3.62-.55-4.21-2.32l-.27-.8,2.07-.69Z"/>
      </g>
      <path class="cls-15" d="M119.64,90.92l2.32,13.34s7.7,5.62,6.96,8.68,3.24,12.98,3.24,12.98l4.53,10s-32.19-30.15-17.05-45Z"/>
      <path class="cls-15" d="M174.74,166.25l-7.08-5.88s19.04,1.62,31.86.02,11.93-3.96,9.5-5.91-21.11.85-24.66-.85-18.52,0-18.52,0"/>
      <path class="cls-15" d="M208.13,160.37s2.3.82-6.26,4.44-10.31,0-10.31,0l-6.76,1.44v2.66s-5.01,0-10.06-.84c-3.51-.58-5.56-4.07-6.48-6.14-.41-.92-.6-1.56-.6-1.56"/>
      <path class="cls-9" d="M155.86,170.2s.98,4.07,7.45,4.43,9.54-1.43,9.54-1.43l5.84.26.8-1.03s-4.6-6.89,0-2.93c0,0,5.12,1.53,6.07.26s.95-5.11.95-5.11h3.83v3.43l12.26-1.82,6.89-4.54v9.32l-1.08,2.81s-4.67-4.6-4.92-2.04-1.91,5.87-1.91,5.87c0,0-16.12-6.34-17.21-.44s0,8.23,0,8.23l-5.67-1.91-3.92,4.47s-4.98-9.45-10.21-9.06-7.78-.15-7.78-.15c0,0-4.12-8.15-.92-8.6Z"/>
      <path class="cls-15" d="M165.84,159.56s-11.72,5.34-12.99,5.08,4.77,6.35,7.23,7.28,10.72,2.3,14.72,0l3.23.5-2.47-5.01s-7.72-7.62-9.73-7.85Z"/>
      <path class="cls-9" d="M138.38,92.52s-3.7,30.66,9.39,43.2"/>
      <path class="cls-15" d="M172.2,191.64s1.42,2.75,3.71,2.49,2.78-20.68,2.78-20.68c0,0-1.71,15.83,3.37,16.6s7.82-5.11,7.82-5.11c0,0,4.42,4.6,8.25,5.11s4.34,1.79,4.34,1.79l-2.95,4.6s-5.43-6.64-5.45-3.83,0,5.62,0,5.62c0,0-4.7-5.36-4.53-2.3s-2.17,16.76-2.17,16.76h-1.8s.96-11.91-1.53-12.17-5.32,6.38-5.32,6.38l-5.04-1.68-1.46-13.57Z"/>
      <path class="cls-1" d="M193.04,103.24c.02,5.87,3.55,9.7,7.42,10.18s3.54,2.84,4.28,6.41,5.64-3.57,3.67-7.91-3.67-11.49-3.67-11.49c0,0,.68,3.57,3.67,7.15s9.38,14.3,6.82,19.4"/>
      <path class="cls-1" d="M200.46,113.42s-6.49,7.67-4.93,14.44,6.93,2.95,6.93,2.95c0,0,7.99-6.45-2-17.39Z"/>
      <polygon class="cls-15" points="184.02 114.58 188.62 110.65 187.36 114.58 189.88 112.61 191.53 114.58 194.06 110.65 193.51 116.52 195.54 112.43 196.6 115.5 194.06 124.18 191.56 122.66 189.53 124.18 189.36 120.86 185.56 122.66 185.56 118.53 182.44 121.37 184.02 114.58"/>
      <path class="cls-7" d="M184.36,141.31l3-5.38s.15,5.62,2.52,4.34,4.88-6.64,5.41-4.34,2.83,3.57,2.83,3.57h2.34v4.09h-14.91"/>
      <path class="cls-15" d="M190.02,131.23s1.31,1.85,2.18.6,2.42-2.5,2.72-1.25,4.28,2.86,5.21,1.68,3.21-2.2,3.21-2.2c0,0-2.01,2.63.2,3.64s-.2,1.24-.2,1.24h-4.11s-4.3-.86-4.3-.86l-3.41.87-1.62-2.45"/>
      <polygon class="cls-3" points="184.44 94.05 187.56 92.35 193.53 103.24 190.16 105.54 184.44 94.05"/>
      <path class="cls-1" d="M207.33,119.41s-2.65,1.29-2.97-.25-.36-5.75,1.65-5.35,2,3.35,1.32,5.59Z"/>
      <path class="cls-10" d="M210.09,127.77c-.03.09-.07.17-.1.26l.2-.47c-.29.66-.65,1.28-1.09,1.85l.31-.4c-.44.57-.95,1.07-1.52,1.51l.4-.31c-.46.35-.95.66-1.48.91-.43.21-.79.74-.91,1.19-.13.48-.07,1.11.2,1.53s.68.8,1.19.91c.54.12,1.03.04,1.53-.2,1.1-.53,2.12-1.3,2.95-2.2.96-1.04,1.64-2.2,2.16-3.51.18-.45.03-1.13-.2-1.53s-.71-.8-1.19-.91c-.51-.12-1.08-.09-1.53.2l-.4.31c-.25.25-.42.54-.51.88h0Z"/>
      <path class="cls-10" d="M135.09,130.94c4.15,6.24,12.53,11.13,12.81,19.34.04,1.27,2.03,1.28,1.98,0-.3-8.85-8.63-13.65-13.08-20.34-.7-1.06-2.42-.07-1.71,1h0Z"/>
      <path class="cls-10" d="M148.09,152.23c1.28,0,1.28-1.98,0-1.98s-1.28,1.98,0,1.98h0Z"/>
      <polygon class="cls-9" points="191.19 159.56 191.19 151.44 189.1 148.51 186.31 147.44 183.99 146.74 183.99 145.09 179.34 146.76 182.36 147.44 181.43 149.61 183.76 149.61 183.99 152.33 186.78 152.33 189.1 152.33 188.17 159.56 191.19 159.56"/>
      <path class="cls-11" d="M170,147.54s-2.09,1.34-2.62,5.33"/>
      <polygon class="cls-13" points="201.57 177.67 202.47 186.93 199.34 180.67 197.52 186.93 196.6 182.3 194.06 185.46 189.88 184.94 188.62 177.67 192.41 177.67 194.06 180.35 197.52 180.35 199.52 173.46 201.57 177.67"/>
      <g>
        <path class="cls-11" d="M142.31,60.49c-3.36-1.49-10.87-.76-14.51-.29-1.15.15-1.98,1.16-1.91,2.32l1.49,21.93c.07,1.09.94,1.97,2.04,2.04,3.55.22,11.06.28,13.89-2.93,3.76-4.26,3.51-21.06-1-23.07ZM138.8,79.91c-.21.71-1.88.82-3.28.78-1.12-.03-2.04-.92-2.11-2.04l-.87-12.65c-.08-1.15,1.38-1,3.22-1,1.41,0,2.45,1.84,2.86,2.7.13.27.2.56.2.85.07,1.98.32,10.26-.01,11.36Z"/>
        <path class="cls-11" d="M153.34,61.05v20.82c0,1.21.98,2.19,2.19,2.19h2.95c1.09,0,2.01-.8,2.17-1.87.68-4.67,2.33-16.78,1.72-21.19-.55-4.06-5.19-2.9-7.59-2-.86.32-1.43,1.14-1.43,2.06Z"/>
        <path class="cls-11" d="M171.77,58.12l.36,24.91c0,.57.47,1.03,1.04,1.03h5.07c.58,0,1.04-.47,1.04-1.04v-8.16c0-.63.56-1.12,1.19-1.04l1.03.14c.34.05.63.25.79.56l4.21,8.2c.18.36.56.58.97.57l4.67-.16c.8-.03,1.28-.92.85-1.6l-6.25-9.94c-.19-.31-.21-.69-.05-1.02l4.83-9.83c.29-.59-.03-1.29-.66-1.47l-3.44-.94c-.44-.12-.9.06-1.15.43l-4.54,6.91c-.19.29-.52.47-.87.47h-.32c-.56,0-1.02-.44-1.04-1l-.28-6.02c-.03-.56-.49-1-1.04-1h-7.03"/>
        <path class="cls-11" d="M216.39,58.11c-1.75-2.39-10.28-3-12.66,0-2.38,3-3.25,4.49-3.26,6.88,0,0-.25,11.29,1.26,14.29,1.5,3.01,13.91,4.89,15.29-2.5,1.38-7.39,1.13-16.28-.63-18.67ZM212.41,74.4c-.1,1.12-.82,2.09-1.88,2.46s-2.25.39-3.02-.96c-1.15-2.01-1.86-7.95-.69-11.44.85-2.52,4.46-2.66,5.42-.18.01.03.02.05.03.08.75,2.04.39,7.39.15,10.03Z"/>
        <path class="cls-11" d="M240.17,72.46c-.34-.66-.17-1.46.4-1.95.81-.69,1.81-2.21,2.03-5.52.27-4.23-1.26-6.56-2.11-7.51-.29-.33-.72-.51-1.16-.51h-11.44c-.87,0-1.58.71-1.58,1.58v21.79c0,.87.71,1.58,1.58,1.58h2.52c.86,0,1.56-.68,1.58-1.54l.16-5.78c.02-.86.73-1.54,1.58-1.54h.97c.7,0,1.32.46,1.52,1.14l2.15,7.32c.2.67.82,1.14,1.52,1.14h2.98c1.19,0,1.95-1.26,1.4-2.31l-4.11-7.91ZM236.71,66c-.77,1.63-1.69,2.16-3.25,2.38-.89.12-1.7-.55-1.77-1.44l-.35-4.24c-.08-.92.65-1.71,1.58-1.71h2.55c.76,0,1.43.54,1.56,1.3.18,1.03.26,2.5-.31,3.72Z"/>
      </g>
    </g>
  </g>
</svg>